<svg width="566" height="290" viewBox="0 0 566 290" fill="none" xmlns="http://www.w3.org/2000/svg">
<path d="M224.659 117.4C224.659 52.55 185.884 0 138.074 0C109.113 0 83.4729 19.3023 67.7357 48.8991C64.2651 55.4529 55.7383 56.9791 50.3829 51.9216L0 4.69838L46.1345 124.073C48.3784 129.879 56.5162 129.699 58.3712 123.744C71.5354 81.7279 102.262 52.2209 138.074 52.2209C163.475 52.2209 186.842 67.4233 203.087 91.3341C206.708 96.6609 205.541 103.993 200.335 107.644L162.727 129.49L100.766 90.586V202.389L162.727 180.035L224.689 202.389V130.747C224.689 130.447 224.689 130.148 224.689 129.909C224.748 126.168 224.689 124.043 224.689 117.43L224.659 117.4Z" fill="#F27544"/>
<path d="M565.94 117.4C565.94 52.55 524.982 0 474.449 0C443.842 0 416.766 19.3023 400.131 48.8991C396.451 55.4529 387.476 56.9791 381.791 51.9216L328.566 4.69838L377.303 124.073C379.667 129.879 388.254 129.699 390.228 123.744C404.14 81.7279 436.602 52.2209 474.449 52.2209C501.286 52.2209 525.969 67.4233 543.142 91.3341C546.972 96.6609 545.745 103.993 540.21 107.644L500.448 129.49L434.986 90.586V202.389L500.448 180.035L565.91 202.389V130.747C565.91 130.447 565.91 130.148 565.91 129.909C565.97 126.168 565.91 124.043 565.91 117.43L565.94 117.4Z" fill="#F27544"/>
<path d="M301.385 275.196C312.046 267.519 313.089 250.737 303.716 237.713C294.342 224.688 278.1 220.353 267.439 228.03C256.778 235.707 255.735 252.488 265.108 265.513C274.482 278.537 290.724 282.872 301.385 275.196Z" fill="#F27544"/>
</svg>
