<svg width="568" height="290" viewBox="0 0 568 290" fill="none" xmlns="http://www.w3.org/2000/svg">
<path d="M225.433 117.767C225.433 52.7144 186.525 0 138.55 0C109.489 0 83.7605 19.3626 67.9691 49.052C64.4866 55.6263 55.9304 57.1573 50.5565 52.084L0 4.71308L46.2935 124.461C48.5451 130.285 56.711 130.105 58.5723 124.131C71.7819 81.9836 102.614 52.3842 138.55 52.3842C164.039 52.3842 187.485 67.6342 203.787 91.6199C207.42 96.9633 206.249 104.318 201.025 107.981L163.288 129.895L101.113 90.8694V203.023L163.288 180.598L225.463 203.023V131.156C225.463 130.855 225.463 130.555 225.463 130.315C225.523 126.563 225.463 124.431 225.463 117.797L225.433 117.767Z" fill="#DAFEB7"/>
<path d="M567.89 117.767C567.89 52.7144 526.791 0 476.084 0C445.372 0 418.202 19.3626 401.51 49.052C397.817 55.6263 388.811 57.1573 383.107 52.084L329.698 4.71308L378.604 124.461C380.975 130.285 389.592 130.105 391.573 124.131C405.533 81.9836 438.107 52.3842 476.084 52.3842C503.014 52.3842 527.781 67.6342 545.014 91.6199C548.857 96.9633 547.626 104.318 542.072 107.981L502.173 129.895L436.485 90.8694V203.023L502.173 180.598L567.86 203.023V131.156C567.86 130.855 567.86 130.555 567.86 130.315C567.92 126.563 567.86 124.431 567.86 117.797L567.89 117.767Z" fill="#DAFEB7"/>
<path d="M302.424 276.057C313.121 268.356 314.168 251.522 304.762 238.456C295.356 225.391 279.058 221.043 268.361 228.743C257.663 236.444 256.616 253.278 266.022 266.343C275.428 279.409 291.726 283.757 302.424 276.057Z" fill="#DAFEB7"/>
</svg>
